<svg xmlns="http://www.w3.org/2000/svg" xmlns:xlink="http://www.w3.org/1999/xlink" id="Capa_1" width="200" height="130" viewBox="0 0 200 130"><g><path fill-rule="evenodd" clip-rule="evenodd" fill="#0c315b" d="M125.725 50.644c-2.104-1.209-3.936-2.118-5.58-3.289-.575-.409-.954-1.457-.974-2.222-.091-4.163-.043-8.327-.043-12.978-2.521 1.422-4.638 2.594-6.733 3.803-3.616 2.086-7.264 4.129-10.813 6.33-1.391.862-2.428.751-3.784-.061-5.128-3.069-10.331-6.015-15.508-9.001-.476-.274-.977-.507-1.908-.987.0 4.17-.172 7.984.066 11.774.14 2.245-.607 3.467-2.593 4.302-1.326.557-2.525 1.415-4.055 2.296v-29.9c3.773 2.134 7.382 4.155 10.972 6.211 4.335 2.484 8.694 4.93 12.954 7.535 1.458.891 2.536.875 3.998.014 7.199-4.235 14.465-8.356 21.711-12.513.687-.394 1.391-.753 2.289-1.237V50.644z"/><path fill-rule="evenodd" clip-rule="evenodd" fill="#0c315b" d="M77.824 18.157c7.254-4.208 14.039-8.169 20.869-12.056.522-.297 1.5-.32 2.014-.029 6.885 3.91 13.724 7.898 20.914 12.064-2.094 1.243-3.842 2.43-5.73 3.313-.626.293-1.737.02-2.424-.361-4.082-2.264-8.126-4.596-12.128-6.996-1.109-.664-1.915-.773-3.098-.051-3.772 2.306-7.717 4.333-11.453 6.691-1.708 1.078-3.026 1.192-4.642-.011C80.924 19.811 79.52 19.147 77.824 18.157"/><path fill-rule="evenodd" clip-rule="evenodd" fill="#0c315b" d="M121.423 53.165c-7.171 4.142-13.887 8.039-20.633 11.882-.479.272-1.336.415-1.765.172-6.887-3.903-13.734-7.878-20.959-12.049 2.137-1.248 3.89-2.39 5.758-3.292.57-.277 1.578-.116 2.179.216 4.01 2.221 8.018 4.455 11.907 6.876 1.429.889 2.417.729 3.745-.08 3.707-2.252 7.545-4.288 11.232-6.569 1.378-.852 2.431-.898 3.741.003C118.027 51.283 119.545 52.065 121.423 53.165"/><path fill="#0c315b" d="M36.817 103.529h-6.193V88.69c0-1.748-.424-3.075-1.27-3.979s-1.885-1.354-3.117-1.354c-.947.0-1.843.149-2.688.451-.847.302-1.671.796-2.473 1.484.258 1.003.387 2.137.387 3.397v14.839h-6.194V88.69c0-1.748-.423-3.075-1.269-3.979s-1.87-1.354-3.075-1.354c-.946.0-1.778.165-2.494.494-.718.33-1.463.854-2.237 1.57v18.107H0v-24.86h6.193l.008 1.849c.774-.745 1.686-1.347 2.733-1.806s2.117-.688 3.209-.688c1.205.0 2.418.272 3.639.817 1.22.545 2.289 1.334 3.208 2.365 1.292-1.146 2.597-1.964 3.918-2.451 1.32-.487 2.771-.731 4.35-.731 1.291.0 2.52.193 3.682.581 1.163.387 2.174 1.004 3.036 1.85.86.846 1.55 1.921 2.066 3.226.517 1.306.775 2.875.775 4.709v15.14z"/><path fill="#0c315b" d="M47.957 74.324h-6.451v-6.451h6.451V74.324zM47.871 103.529h-6.279V78.626h6.279v24.903z"/><path fill="#0c315b" d="M64.044 103.4c-.488.229-1.04.415-1.656.559-.617.144-1.255.216-1.914.216-.918.0-1.8-.123-2.646-.366-.846-.244-1.585-.637-2.216-1.183-.63-.545-1.132-1.255-1.505-2.129s-.559-1.929-.559-3.161V67.83h6.322v28.43c0 1.033.208 1.742.624 2.13.415.387.91.58 1.483.58.716.0 1.405-.215 2.065-.645V103.4z"/><path fill="#0c315b" d="M92.731 91.056c0 .402-.021.817-.064 1.248-.043.43-.093.875-.15 1.333H72.646c.229.717.552 1.397.968 2.043.415.646.924 1.204 1.526 1.678.603.473 1.283.845 2.043 1.118.76.272 1.599.408 2.517.408 1.118.0 2.236-.193 3.355-.581 1.118-.387 2.049-.91 2.795-1.569l3.914 3.914c-1.721 1.29-3.405 2.2-5.054 2.731-1.649.53-3.391.796-5.226.796-1.865.0-3.607-.345-5.227-1.033s-3.025-1.619-4.215-2.796c-1.19-1.175-2.129-2.559-2.816-4.149-.688-1.592-1.033-3.291-1.033-5.098.0-1.806.345-3.505 1.033-5.097.688-1.591 1.634-2.975 2.839-4.15 1.203-1.176 2.608-2.108 4.214-2.796 1.605-.688 3.326-1.032 5.162-1.032 1.748.0 3.426.323 5.032.968 1.605.646 3.024 1.542 4.258 2.688 1.232 1.146 2.208 2.517 2.925 4.107S92.731 89.135 92.731 91.056M86.236 88.647c-.487-1.576-1.354-2.846-2.602-3.807-1.247-.96-2.66-1.441-4.236-1.441-1.549.0-2.94.481-4.173 1.441-1.232.961-2.093 2.23-2.58 3.807H86.236z"/><path fill="#0c315b" d="M119.227 103.529h-6.193V88.69c0-.889-.138-1.67-.411-2.345-.273-.673-.641-1.232-1.102-1.677s-.986-.774-1.576-.989-1.202-.322-1.835-.322c-.951.0-1.887.165-2.809.494-.921.33-1.756.854-2.505 1.57v18.107h-6.193v-24.86h6.193l.043 1.849c.373-.372.832-.716 1.377-1.031.544-.315 1.11-.581 1.698-.796s1.189-.38 1.808-.495c.616-.114 1.211-.172 1.784-.172 1.262.0 2.474.201 3.635.603s2.193 1.018 3.097 1.849c.903.832 1.627 1.908 2.172 3.227.544 1.319.817 2.881.817 4.688v15.139z"/><path fill="#0c315b" d="M130.409 74.324h-6.452v-6.451h6.452V74.324zM130.323 103.529h-6.28V78.626h6.28v24.903z"/><path fill="#0c315b" d="M158.022 103.529h-6.194v-1.893c-.401.401-.868.753-1.397 1.054-.531.301-1.09.56-1.678.774s-1.19.379-1.807.494c-.617.114-1.197.172-1.742.172-1.262.0-2.472-.2-3.634-.602s-2.187-1.018-3.075-1.85c-.89-.831-1.599-1.906-2.129-3.226-.531-1.319-.796-2.882-.796-4.688V78.669h6.193v14.796c0 .889.136 1.67.409 2.344.271.674.63 1.233 1.074 1.678.445.445.961.773 1.549.989.587.215 1.197.322 1.828.322 2.007.0 3.742-.688 5.204-2.064V78.669h6.194v24.86z"/><path fill="#0c315b" d="M2e2 103.529h-6.193V88.69c0-1.748-.424-3.075-1.27-3.979s-1.886-1.354-3.118-1.354c-.946.0-1.842.149-2.688.451-.847.302-1.671.796-2.474 1.484.258 1.003.387 2.137.387 3.397v14.839h-6.193V88.69c0-1.748-.423-3.075-1.269-3.979s-1.87-1.354-3.075-1.354c-.947.0-1.778.165-2.495.494-.717.33-1.462.854-2.236 1.57v18.107h-6.193v-24.86h6.193l.008 1.849c.774-.745 1.686-1.347 2.733-1.806s2.117-.688 3.209-.688c1.205.0 2.417.272 3.639.817 1.22.545 2.289 1.334 3.208 2.365 1.292-1.146 2.597-1.964 3.918-2.451 1.32-.487 2.77-.731 4.35-.731 1.291.0 2.519.193 3.683.581 1.162.387 2.173 1.004 3.035 1.85.86.846 1.55 1.921 2.066 3.226.517 1.306.775 2.875.775 4.709v15.14z"/><path fill-rule="evenodd" clip-rule="evenodd" fill="#0c315b" d="M95.499 117.063c.125.0.248-.015.365-.044.116-.028.221-.074.311-.138.089-.063.161-.146.215-.246.055-.1.08-.22.08-.361s-.025-.263-.08-.365c-.054-.102-.126-.188-.215-.256-.09-.068-.194-.119-.311-.153-.117-.035-.24-.052-.365-.052h-.666v1.608c.123.005.231.007.329.007H95.499z"/><path fill-rule="evenodd" clip-rule="evenodd" fill="#0c315b" d="M96.431 118.099c-.081-.07-.173-.126-.278-.164-.104-.04-.218-.059-.339-.059-.166-.006-.329-.007-.49-.004-.161.002-.324.004-.49.004v1.615h.849c.122.0.244-.016.365-.045.122-.028.23-.077.325-.142.096-.066.172-.149.23-.249s.087-.221.087-.362c0-.121-.021-.233-.068-.336C96.573 118.255 96.511 118.169 96.431 118.099"/><path fill-rule="evenodd" clip-rule="evenodd" fill="#0c315b" d="M121.481 116.066c-.166-.183-.371-.326-.611-.431-.241-.104-.513-.157-.813-.157h-.987v3.99h.987c.296.0.562-.05.8-.15.234-.1.438-.238.603-.416.167-.178.294-.388.384-.628.091-.242.139-.506.142-.793.006-.273-.036-.532-.124-.775C121.773 116.462 121.647 116.249 121.481 116.066"/><path fill-rule="evenodd" clip-rule="evenodd" fill="#0c315b" d="M50.244 116.066c-.166-.183-.369-.326-.611-.431-.241-.104-.513-.157-.813-.157h-.986v3.99h.986c.296.0.563-.05.8-.15.236-.1.438-.238.603-.416.167-.178.294-.388.384-.628.091-.242.137-.506.143-.793.005-.273-.037-.532-.125-.775C50.536 116.462 50.41 116.249 50.244 116.066"/><path fill-rule="evenodd" clip-rule="evenodd" fill="#0c315b" d="M81.699 115.683c-.087-.083-.191-.147-.31-.193-.119-.046-.248-.069-.384-.069h-.819v1.819h.819c.136.0.265-.021.384-.063.118-.041.223-.101.31-.179.088-.078.157-.172.209-.281.05-.11.076-.232.076-.368.0-.138-.026-.262-.076-.373C81.856 115.863 81.787 115.766 81.699 115.683"/><path fill-rule="evenodd" clip-rule="evenodd" fill="#0c315b" d="M131.936 116.132c-.179-.178-.387-.318-.627-.424-.239-.104-.493-.157-.761-.157-.273.0-.53.053-.769.157-.24.105-.448.246-.628.424-.177.178-.317.386-.42.621-.103.236-.153.489-.153.757.0.263.051.515.153.753s.243.447.42.625c.18.178.388.318.628.423.238.105.495.158.769.158.268.0.521-.053.761-.158.24-.104.448-.245.627-.423.177-.178.318-.387.421-.625.102-.238.154-.49.154-.753.0-.268-.053-.521-.154-.757C132.254 116.518 132.112 116.31 131.936 116.132"/><polygon fill-rule="evenodd" clip-rule="evenodd" fill="#0c315b" points="148.64,118.321 150.599,118.321 149.626,116.216"/><path fill-rule="evenodd" clip-rule="evenodd" fill="#0c315b" d="M40.99 124.135h117.546v-13.257H40.99v13.257zm10.702-5.489c-.138.353-.328.662-.572.928-.243.266-.534.475-.872.629-.34.153-.708.229-1.108.229H46.7v-5.847h2.44c.4.0.769.079 1.108.234.338.156.629.365.872.628.244.263.435.573.572.929.135.355.204.734.204 1.133C51.896 117.915 51.827 118.293 51.692 118.646M57.56 120.433h-1.132v-5.839h1.132v5.839zM66.071 119.523c-.097.197-.229.371-.399.522s-.372.271-.605.361c-.234.091-.493.136-.776.136-.254.0-.48-.015-.683-.043-.202-.03-.393-.076-.57-.14-.177-.063-.348-.146-.511-.245s-.333-.221-.51-.361l.805-.812c.234.194.464.332.688.413.224.08.468.12.731.12.106.0.208-.015.303-.047s.178-.075.249-.129c.07-.053.127-.116.168-.189.042-.073.063-.153.063-.24.0-.094-.018-.177-.052-.249-.033-.073-.095-.144-.183-.213-.088-.068-.211-.137-.365-.208-.156-.07-.355-.149-.6-.237-.214-.078-.421-.166-.617-.267-.198-.101-.37-.221-.52-.361-.149-.142-.268-.308-.358-.497-.089-.19-.135-.414-.135-.673.0-.249.05-.478.15-.687.1-.211.235-.389.409-.537.172-.148.375-.266.605-.348.231-.082.481-.124.75-.124.447.0.826.059 1.133.175.307.117.58.288.818.512l-.788.798c-.146-.142-.311-.25-.491-.326-.18-.075-.393-.113-.636-.113-.111.0-.215.018-.311.051-.095.034-.177.08-.244.136-.069.056-.124.122-.165.197-.042.076-.063.154-.063.237.0.093.02.177.059.252s.105.149.198.219c.092.072.215.143.369.213.152.07.344.147.572.229.294.103.545.215.753.337.209.121.38.256.513.402.131.146.229.311.291.493.063.183.097.388.097.617C66.214 119.117 66.165 119.326 66.071 119.523m8.613-3.92h-1.615v4.83h-1.146v-4.83h-1.616v-1.009h4.378v1.009zM82.214 120.433l-.415-1.33c-.045-.146-.1-.28-.165-.401-.064-.122-.144-.227-.236-.314s-.203-.156-.332-.205-.281-.072-.456-.072h-.423v2.323h-1.118v-5.839l2.306-.008c.248.0.479.043.694.128.213.086.397.203.554.355.155.15.276.328.364.533.087.205.131.427.131.665.0.171-.026.336-.079.497-.054.16-.129.31-.225.446-.098.136-.213.256-.346.361-.132.104-.28.184-.439.237.184.068.334.168.45.296.116.13.209.283.276.465.034.082.064.165.094.248s.061.169.092.26c.031.09.065.187.103.291.035.105.074.221.118.349.054.16.104.298.149.412.048.114.097.216.15.303H82.214zm6.735.0h-1.133v-5.839h1.133v5.839zm8.768-.997c-.1.207-.232.386-.398.533-.166.149-.357.265-.574.348-.216.083-.443.124-.683.124l-2.361-.008v-5.847h2.105c.253.0.488.038.705.113.217.076.406.186.566.33.161.144.286.318.377.525.089.207.135.44.135.698.0.219-.05.431-.146.636s-.226.378-.388.52c.127.063.241.143.34.24.102.099.186.206.256.325.071.12.125.246.161.381.036.134.056.269.056.404C97.867 119.003 97.817 119.229 97.717 119.436M107.449 117.759c0 .39-.06.752-.177 1.088-.116.337-.286.631-.508.882-.221.25-.491.447-.812.592-.318.144-.683.215-1.092.215-.399.0-.761-.07-1.082-.211-.322-.142-.595-.336-.822-.581-.226-.246-.401-.537-.522-.87-.121-.334-.183-.693-.183-1.078v-3.209h1.133v3.216c0 .225.031.435.095.633.063.197.156.369.278.515s.272.263.457.348c.182.086.391.128.624.128.248.0.465-.04.647-.12.183-.082.334-.193.454-.337.118-.144.208-.312.269-.508.062-.194.092-.409.092-.643v-3.231h1.148V117.759zM113.186 120.433h-1.133v-5.839h1.133v5.839zM122.929 118.646c-.137.353-.328.662-.57.928-.244.266-.535.475-.873.629-.34.153-.708.229-1.108.229h-2.44v-5.847h2.44c.4.0.769.079 1.108.234.338.156.629.365.873.628.242.263.434.573.57.929.136.355.205.734.205 1.133C123.134 117.915 123.064 118.293 122.929 118.646M133.398 118.693c-.163.371-.386.692-.668.966-.282.272-.61.488-.985.646-.375.159-.774.238-1.197.238s-.823-.079-1.201-.238c-.378-.157-.708-.373-.99-.646-.281-.273-.504-.594-.667-.962-.163-.367-.244-.763-.244-1.188.0-.424.081-.821.244-1.191.163-.371.386-.691.667-.965.282-.272.612-.487.99-.644.378-.154.778-.232 1.201-.232s.822.078 1.197.232c.375.156.703.372.985.648.282.274.505.596.668.964s.245.764.245 1.188C133.644 117.929 133.562 118.323 133.398 118.693M141.326 120.433l-.415-1.33c-.044-.146-.098-.28-.164-.401-.066-.122-.146-.227-.237-.314s-.203-.156-.331-.205c-.13-.049-.281-.072-.456-.072h-.424v2.323h-1.119v-5.839l2.307-.008c.249.0.479.043.693.128.215.086.397.203.555.355.155.15.277.328.363.533.088.205.133.427.133.665.0.171-.026.336-.08.497-.054.16-.128.31-.226.446s-.211.256-.344.361c-.134.104-.28.184-.439.237.185.068.334.168.449.296.116.13.208.283.276.465.034.082.066.165.096.248.028.083.058.169.09.26.031.09.064.187.102.291.036.105.076.221.121.349.052.16.103.298.149.412s.096.216.148.303H141.326zm10.26.0-.541-1.169h-2.836l-.549 1.169h-1.241l2.762-5.847h.885l2.763 5.847H151.586z"/><path fill-rule="evenodd" clip-rule="evenodd" fill="#0c315b" d="M140.813 115.683c-.089-.083-.192-.147-.312-.193-.12-.046-.247-.069-.384-.069h-.819v1.819h.819c.137.0.264-.021.384-.063.119-.041.223-.101.312-.179.086-.078.155-.172.208-.281.051-.11.076-.232.076-.368.0-.138-.025-.262-.076-.373C140.969 115.863 140.899 115.766 140.813 115.683"/></g></svg>